Coordinates
version=1
nRows=60
nColumns=12
inDegrees=yes

Units are S.I. units (second, meters, Newtons, ...)
Angles are in degrees

endheader
time	SC_y	SC_z	SC_x	AC_y	AC_z	AC_x	GH_y	GH_z	GH_yy	EL_x	PS_y
       0.0              -28.71          19.27          75.81           69.3         -19.56         -15.74         -161.2          9.355         -12.95          123.7          73.66
   0.03374              -28.71          19.27           75.8          69.29         -19.56         -15.74         -161.2          9.362         -12.94          123.7          73.65
   0.06748              -28.71          19.27          75.79          69.29         -19.56         -15.74         -161.1          9.369         -12.93          123.7          73.64
    0.1012              -28.71          19.27          75.78          69.28         -19.55         -15.74         -161.1          9.377         -12.92          123.7          73.63
     0.135              -28.71          19.27          75.77          69.27         -19.55         -15.74         -161.1          9.385         -12.91          123.7          73.62
    0.1687              -28.71          19.27          75.76          69.27         -19.54         -15.74         -161.1          9.394          -12.9          123.6          73.61
    0.2025              -28.71          19.27          75.74          69.26         -19.54         -15.74         -161.1          9.404         -12.89          123.6           73.6
    0.2362              -28.71          19.27          75.73          69.25         -19.53         -15.74         -161.0          9.414         -12.88          123.6          73.59
    0.2699              -28.71          19.27          75.71          69.25         -19.53         -15.74         -161.0          9.425         -12.87          123.6          73.58
    0.3037              -28.71          19.27           75.7          69.24         -19.52         -15.74         -161.0          9.436         -12.86          123.5          73.56
    0.3374              -28.71          19.27          75.68          69.23         -19.52         -15.74         -161.0          9.449         -12.84          123.5          73.55
    0.3712              -28.71          19.27          75.66          69.22         -19.51         -15.74         -160.9          9.463         -12.83          123.5          73.53
    0.4049              -28.71          19.28          75.64          69.21          -19.5         -15.74         -160.9          9.477         -12.81          123.4          73.51
    0.4386              -28.71          19.28          75.62          69.19         -19.49         -15.75         -160.9          9.493         -12.79          123.4          73.49
    0.4724              -28.71          19.28           75.6          69.18         -19.48         -15.75         -160.8           9.51         -12.77          123.4          73.47
    0.5061              -28.71          19.28          75.57          69.17         -19.47         -15.75         -160.8          9.528         -12.75          123.3          73.45
    0.5399              -28.71          19.28          75.55          69.15         -19.46         -15.75         -160.7          9.549         -12.73          123.3          73.42
    0.5736              -28.71          19.28          75.52          69.14         -19.45         -15.75         -160.7           9.57         -12.71          123.2           73.4
    0.6074              -28.71          19.28          75.48          69.12         -19.44         -15.75         -160.6          9.594         -12.68          123.1          73.37
    0.6411              -28.71          19.28          75.45           69.1         -19.43         -15.75         -160.6          9.621         -12.65          123.1          73.34
    0.6748              -28.71          19.28          75.41          69.08         -19.41         -15.75         -160.5          9.649         -12.62          123.0           73.3
    0.7086              -28.72          19.28          75.37          69.05          -19.4         -15.75         -160.5          9.681         -12.59          122.9          73.26
    0.7423              -28.72          19.28          75.32          69.03         -19.38         -15.75         -160.4          9.716         -12.55          122.9          73.22
    0.7761              -28.72          19.28          75.26           69.0         -19.36         -15.76         -160.3          9.755          -12.5          122.8          73.17
    0.8098              -28.72          19.28          75.21          68.97         -19.33         -15.76         -160.2          9.798         -12.46          122.7          73.12
    0.8435              -28.72          19.28          75.14          68.93         -19.31         -15.76         -160.1          9.846          -12.4          122.5          73.06
    0.8773              -28.72          19.28          75.07          68.89         -19.28         -15.76         -160.0          9.899         -12.34          122.4           73.0
     0.911              -28.72          19.28          74.98          68.85         -19.25         -15.77         -159.8           9.96         -12.28          122.3          72.92
    0.9448              -28.72          19.28          74.89          68.79         -19.22         -15.77         -159.7          10.03          -12.2          122.1          72.84
    0.9785              -28.73          19.29          74.79          68.74         -19.17         -15.77         -159.5          10.11         -12.12          121.9          72.75
     1.012              -28.73          19.29          74.66          68.67         -19.13         -15.78         -159.3          10.19         -12.02          121.7          72.64
     1.046              -28.73          19.29          74.53          68.59         -19.08         -15.78         -159.1           10.3         -11.91          121.4          72.51
      1.08              -28.73          19.29          74.37          68.51         -19.02         -15.79         -158.8          10.41         -11.78          121.1          72.37
     1.113              -28.74          19.29          74.18          68.41         -18.94         -15.79         -158.5          10.55         -11.63          120.8          72.21
     1.147              -28.74           19.3          73.96          68.29         -18.86          -15.8         -158.2          10.71         -11.45          120.4          72.01
     1.181              -28.75           19.3          73.71          68.15         -18.76         -15.81         -157.8           10.9         -11.24          120.0          71.78
     1.215              -28.75           19.3           73.4          67.98         -18.65         -15.82         -157.3          11.12          -11.0          119.4          71.51
     1.248              -28.76          19.31          73.04          67.78         -18.51         -15.83         -156.7          11.39          -10.7          118.8          71.18
     1.282              -28.77          19.31          72.59          67.54         -18.34         -15.84         -156.0          11.71         -10.34          118.0          70.79
     1.316              -28.78          19.32          72.05          67.24         -18.14         -15.86         -155.1          12.11         -9.908          117.0          70.31
      1.35              -28.79          19.33          71.39          66.88         -17.88         -15.88         -154.0           12.6         -9.369          115.8          69.71
     1.383               -28.8          19.34          70.56          66.42         -17.57         -15.91         -152.6          13.21         -8.696          114.3          68.97
     1.417              -28.82          19.35          69.51          65.85         -17.17         -15.94         -150.9          13.98          -7.85          112.4          68.04
     1.451              -28.85          19.37          68.18          65.12         -16.66         -15.99         -148.8          14.95         -6.773          110.1          66.85
     1.485              -28.88          19.39          66.47          64.19         -16.01         -16.04         -146.0           16.2         -5.395          107.0          65.33
     1.518              -28.92          19.42          64.29          62.99         -15.18         -16.11         -142.5           17.8         -3.627          103.1          63.38
     1.552              -28.97          19.46           61.5          61.46         -14.12          -16.2         -137.9          19.85         -1.369          98.09          60.89
     1.586              -29.03           19.5          57.98          59.54         -12.78         -16.31         -132.2          22.43          1.471           91.8          57.75
      1.62              -29.11          19.56           53.7          57.19         -11.15         -16.45         -125.3          25.57          4.932          84.14          53.93
     1.653               -29.2          19.62          48.74          54.48         -9.266         -16.61         -117.2           29.2          8.943          75.25          49.51
     1.687              -29.29          19.69          43.37          51.54         -7.222         -16.79         -108.5          33.14          13.29          65.63          44.72
     1.721              -29.39          19.76           38.0           48.6         -5.178         -16.96         -99.76          37.08          17.63          56.01          39.92
     1.755              -29.48          19.82          33.04          45.88         -3.291         -17.12         -91.71          40.72          21.64          47.13           35.5
     1.788              -29.56          19.88          28.76          43.54         -1.662         -17.26         -84.76          43.86           25.1          39.47          31.68
     1.822              -29.62          19.92          25.25          41.62        -0.3262         -17.37         -79.05          46.43          27.94          33.18          28.54
     1.856              -29.67          19.96          22.46          40.09         0.7365         -17.46         -74.52          48.48           30.2          28.17          26.05
      1.89              -29.71          19.99          20.27          38.89          1.568         -17.53         -70.97          50.09          31.97          24.26           24.1
     1.923              -29.74          20.01          18.57          37.96          2.217         -17.59          -68.2          51.33          33.35          21.21          22.58
     1.957              -29.77          20.03          17.24          37.23          2.723         -17.63         -66.04          52.31          34.42          18.82          21.39
     1.991              -29.79          20.04          16.19          36.65          3.122         -17.66         -64.33          53.08          35.27          16.95          20.46
